<svg width="102" height="98" viewBox="0 0 102 98" fill="none" xmlns="http://www.w3.org/2000/svg">
<g clip-path="url(#clip0_406_119)">
<path d="M47.2352 18.7646L47.2353 18.7647C47.919 19.4483 47.919 20.5516 47.2353 21.2353L47.2353 21.2353L32.2376 36.2353C31.554 36.9189 30.4461 36.9189 29.7626 36.2353C29.0791 35.5517 29.0791 34.4483 29.7626 33.7646L29.7626 33.7646L42.9914 20.5302L43.5214 19.9999L42.9913 19.4697L29.7626 6.23771C29.7626 6.2377 29.7626 6.23769 29.7626 6.23769C29.0792 5.55408 29.0791 4.44622 29.7623 3.76252C29.7624 3.76249 29.7624 3.76245 29.7624 3.76242C29.7625 3.76237 29.7625 3.76232 29.7626 3.76226C30.4461 3.07945 31.5541 3.07945 32.2378 3.76248C32.2378 3.76251 32.2378 3.76253 32.2379 3.76256L47.2352 18.7646ZM71 33.25C71.9686 33.25 72.75 34.0314 72.75 35C72.75 35.9686 71.9686 36.75 71 36.75H48.5C47.5314 36.75 46.75 35.9686 46.75 35C46.75 34.0314 47.5314 33.25 48.5 33.25H71Z" stroke="#3294F8" stroke-width="1.5"/>
</g>
<path d="M14.4844 78.2695V85.7578C13.375 86.7734 11.1289 87.2812 7.74609 87.2812C7.08203 87.2812 6.49609 87.2539 5.98828 87.1992C5.48828 87.1445 5.02734 87.0742 4.60547 86.9883C4.19141 86.9023 3.83594 86.7578 3.53906 86.5547C3.24219 86.3438 2.98047 86.1328 2.75391 85.9219C2.52734 85.7109 2.34375 85.4062 2.20312 85.0078C2.0625 84.6016 1.94531 84.2109 1.85156 83.8359C1.76562 83.4609 1.69922 82.957 1.65234 82.3242C1.61328 81.6914 1.58594 81.0859 1.57031 80.5078C1.55469 79.9297 1.54688 79.1875 1.54688 78.2812C1.54688 77.5078 1.55078 76.8477 1.55859 76.3008C1.57422 75.7539 1.60156 75.1953 1.64062 74.625C1.6875 74.0547 1.74609 73.582 1.81641 73.207C1.89453 72.8242 1.99609 72.4414 2.12109 72.0586C2.25391 71.668 2.40625 71.3555 2.57812 71.1211C2.75 70.8789 2.96484 70.6406 3.22266 70.4062C3.48047 70.1719 3.76562 69.9922 4.07812 69.8672C4.39844 69.7422 4.76953 69.6289 5.19141 69.5273C5.61328 69.4258 6.07422 69.3594 6.57422 69.3281C7.07422 69.2891 7.64062 69.2695 8.27344 69.2695C8.3125 69.2695 8.37109 69.2695 8.44922 69.2695C8.99609 69.2695 9.41016 69.2734 9.69141 69.2812C9.97266 69.2891 10.3516 69.3203 10.8281 69.375C11.3125 69.4219 11.6836 69.5 11.9414 69.6094C12.1992 69.7109 12.4961 69.8672 12.832 70.0781C13.168 70.2812 13.418 70.5352 13.582 70.8398C13.7461 71.1367 13.8906 71.5156 14.0156 71.9766C14.1406 72.4375 14.2031 72.9688 14.2031 73.5703C14.2031 73.7109 14.1953 73.9062 14.1797 74.1562L12.082 74.5547L11.9531 72.2461C11.9375 71.7461 11.6523 71.4258 11.0977 71.2852C10.543 71.1367 9.49219 71.0625 7.94531 71.0625C6.89062 71.0625 6.09375 71.1289 5.55469 71.2617C5.01562 71.3867 4.64062 71.582 4.42969 71.8477C4.21875 72.1133 4.08984 72.5078 4.04297 73.0312C3.97266 74.6328 3.9375 76.2734 3.9375 77.9531C3.9375 79.6406 3.97266 81.2812 4.04297 82.875C4.08203 83.7188 4.14844 84.2656 4.24219 84.5156C4.39062 84.8984 4.73047 85.1562 5.26172 85.2891C5.76172 85.4141 6.63281 85.4766 7.875 85.4766C10.5469 85.4766 12.0273 85.2969 12.3164 84.9375C12.3086 84.1328 12.3047 82.5 12.3047 80.0391H9.35156L9.15234 78.2695H14.4844ZM20.4258 87H18.0469V69.5391H20.4258V87ZM33.8906 71.3438H29.332V87H26.9531V71.3438H22.4883V69.5391H33.8906V71.3438ZM53.5898 69.5391V80.4727C53.5898 81.4102 53.5469 82.2148 53.4609 82.8867C53.3828 83.5586 53.2383 84.1562 53.0273 84.6797C52.8164 85.1953 52.5508 85.6172 52.2305 85.9453C51.918 86.2656 51.5039 86.5312 50.9883 86.7422C50.4805 86.9453 49.9102 87.0859 49.2773 87.1641C48.6445 87.2422 47.8789 87.2812 46.9805 87.2812C46.1133 87.2812 45.375 87.2461 44.7656 87.1758C44.1562 87.1055 43.5938 86.9766 43.0781 86.7891C42.5625 86.5938 42.1445 86.3398 41.8242 86.0273C41.5117 85.707 41.2422 85.293 41.0156 84.7852C40.7891 84.2695 40.6289 83.6641 40.5352 82.9688C40.4492 82.2734 40.4062 81.4414 40.4062 80.4727V69.5391H42.7852V80.7773C42.7852 81.4258 42.7852 81.8945 42.7852 82.1836C42.793 82.4727 42.8164 82.8281 42.8555 83.25C42.8945 83.6641 42.9453 83.9492 43.0078 84.1055C43.0703 84.2539 43.1719 84.4414 43.3125 84.668C43.4609 84.8945 43.625 85.0391 43.8047 85.1016C43.9922 85.1562 44.2461 85.2266 44.5664 85.3125C44.8867 85.3984 45.2305 85.4492 45.5977 85.4648C45.9727 85.4727 46.4375 85.4766 46.9922 85.4766C47.6484 85.4766 48.1953 85.457 48.6328 85.418C49.0781 85.3789 49.4648 85.3008 49.793 85.1836C50.1211 85.0664 50.3711 84.9336 50.543 84.7852C50.7227 84.6289 50.8633 84.4023 50.9648 84.1055C51.0742 83.8086 51.1445 83.5 51.1758 83.1797C51.207 82.8594 51.2227 82.4336 51.2227 81.9023L51.2109 69.5391H53.5898ZM66.4805 83.4375C66.4805 84.1875 66.3984 84.8047 66.2344 85.2891C66.0703 85.7656 65.7969 86.1445 65.4141 86.4258C65.0391 86.707 64.5781 86.9023 64.0312 87.0117C63.4922 87.1211 62.8086 87.1758 61.9805 87.1758C61.4961 87.1758 61.1055 87.1719 60.8086 87.1641C60.5195 87.1562 60.1836 87.1367 59.8008 87.1055C59.418 87.0742 59.1133 87.0273 58.8867 86.9648C58.6602 86.8945 58.4141 86.8047 58.1484 86.6953C57.8906 86.5781 57.6875 86.4336 57.5391 86.2617C57.3906 86.082 57.25 85.8711 57.1172 85.6289C56.9844 85.3867 56.8906 85.1016 56.8359 84.7734C56.7812 84.4375 56.7539 84.0586 56.7539 83.6367L58.5703 83.168C58.6406 84.0586 58.7227 84.6211 58.8164 84.8555C58.957 85.1758 59.25 85.3789 59.6953 85.4648C60.0312 85.5352 60.7383 85.5703 61.8164 85.5703C62.4648 85.5703 62.9453 85.543 63.2578 85.4883C63.5781 85.4258 63.793 85.3125 63.9023 85.1484C64.2148 84.8906 64.3711 84.0117 64.3711 82.5117C64.3711 82.2852 64.3242 82.0938 64.2305 81.9375C64.1367 81.7734 64.0234 81.6523 63.8906 81.5742C63.7578 81.4883 63.5703 81.418 63.3281 81.3633C63.0938 81.3008 62.8789 81.2617 62.6836 81.2461C62.4961 81.2227 62.2461 81.1953 61.9336 81.1641C61.6211 81.1328 61.3711 81.1055 61.1836 81.082C60.6133 81.0195 60.1484 80.9609 59.7891 80.9062C59.4297 80.8438 59.0664 80.7539 58.6992 80.6367C58.332 80.5195 58.043 80.375 57.832 80.2031C57.6289 80.0312 57.4414 79.8086 57.2695 79.5352C57.0977 79.2617 56.9766 78.9336 56.9062 78.5508C56.8359 78.168 56.8008 77.7109 56.8008 77.1797C56.8008 76.6172 56.8594 76.1406 56.9766 75.75C57.0938 75.3594 57.2656 75.0352 57.4922 74.7773C57.7188 74.5195 58.0273 74.3203 58.418 74.1797C58.8164 74.0312 59.2617 73.9297 59.7539 73.875C60.2461 73.8125 60.8477 73.7812 61.5586 73.7812C62.0039 73.7812 62.3672 73.7891 62.6484 73.8047C62.9375 73.8125 63.25 73.8398 63.5859 73.8867C63.9297 73.9258 64.207 73.9844 64.418 74.0625C64.6289 74.1406 64.8398 74.25 65.0508 74.3906C65.2695 74.5312 65.4375 74.707 65.5547 74.918C65.6719 75.1211 65.7656 75.3711 65.8359 75.668C65.9141 75.9648 65.9531 76.3047 65.9531 76.6875L64.3828 77.168C64.3516 76.8633 64.3203 76.625 64.2891 76.4531C64.2656 76.2734 64.207 76.1094 64.1133 75.9609C64.0195 75.8125 63.9219 75.707 63.8203 75.6445C63.7188 75.582 63.543 75.5273 63.293 75.4805C63.0508 75.4336 62.8047 75.4062 62.5547 75.3984C62.3047 75.3906 61.9453 75.3867 61.4766 75.3867C60.4766 75.3867 59.7969 75.4883 59.4375 75.6914C59.0859 75.8867 58.9102 76.2109 58.9102 76.6641V77.8594C58.9102 78.375 59.0625 78.7031 59.3672 78.8438C59.6797 78.9766 60.5078 79.1289 61.8516 79.3008C61.9922 79.3242 62.0977 79.3398 62.168 79.3477C62.707 79.4102 63.1328 79.4688 63.4453 79.5234C63.7656 79.5781 64.1016 79.6523 64.4531 79.7461C64.8047 79.832 65.0703 79.9375 65.25 80.0625C65.4375 80.1797 65.6211 80.332 65.8008 80.5195C65.9883 80.707 66.1211 80.9375 66.1992 81.2109C66.2852 81.4844 66.3516 81.8008 66.3984 82.1602C66.4531 82.5195 66.4805 82.9453 66.4805 83.4375ZM79.4531 80.3906C78.5156 80.4844 77.9336 80.5391 77.707 80.5547H71.3203C71.3281 81.6875 71.3594 82.9297 71.4141 84.2812C71.4531 84.8047 71.6758 85.1523 72.082 85.3242C72.4961 85.4883 73.2969 85.5703 74.4844 85.5703C74.9297 85.5703 75.3125 85.5547 75.6328 85.5234C75.9531 85.4844 76.2109 85.4219 76.4062 85.3359C76.6094 85.2422 76.7656 85.1562 76.875 85.0781C76.9922 84.9922 77.0781 84.8633 77.1328 84.6914C77.1875 84.5117 77.2227 84.3633 77.2383 84.2461C77.2539 84.1211 77.2695 83.9375 77.2852 83.6953C77.3008 83.4453 77.3203 83.2422 77.3438 83.0859L79.1367 83.4141C79.1211 83.9609 79.082 84.4258 79.0195 84.8086C78.957 85.1836 78.8516 85.5156 78.7031 85.8047C78.5547 86.0938 78.3789 86.3242 78.1758 86.4961C77.9727 86.6602 77.6992 86.7969 77.3555 86.9062C77.0117 87.0156 76.6328 87.0859 76.2188 87.1172C75.8047 87.1562 75.293 87.1758 74.6836 87.1758C73.9023 87.1758 73.2227 87.1289 72.6445 87.0352C72.0664 86.9492 71.5703 86.8398 71.1562 86.707C70.75 86.5742 70.4141 86.3594 70.1484 86.0625C69.8828 85.7578 69.6719 85.4688 69.5156 85.1953C69.3672 84.9219 69.2578 84.5195 69.1875 83.9883C69.1172 83.457 69.0703 82.9766 69.0469 82.5469C69.0312 82.1094 69.0234 81.5078 69.0234 80.7422C69.0234 79.6641 69.0352 78.8242 69.0586 78.2227C69.0898 77.6211 69.168 77.0195 69.293 76.418C69.418 75.8086 69.5859 75.3672 69.7969 75.0938C70.0078 74.8203 70.3203 74.5664 70.7344 74.332C71.1484 74.0977 71.6367 73.9492 72.1992 73.8867C72.7617 73.8164 73.4766 73.7812 74.3438 73.7812C74.9453 73.7812 75.4648 73.8008 75.9023 73.8398C76.3398 73.8711 76.7422 73.9414 77.1094 74.0508C77.4766 74.1602 77.7773 74.2852 78.0117 74.4258C78.2539 74.5664 78.4648 74.7734 78.6445 75.0469C78.832 75.3203 78.9727 75.6055 79.0664 75.9023C79.168 76.1914 79.25 76.5781 79.3125 77.0625C79.375 77.5469 79.4141 78.0391 79.4297 78.5391C79.4453 79.0312 79.4531 79.6484 79.4531 80.3906ZM71.332 79.3242H77.1445C77.1289 78.3242 77.0898 77.4102 77.0273 76.582C76.9961 76.1055 76.7891 75.7891 76.4062 75.6328C76.0312 75.4688 75.3398 75.3867 74.332 75.3867C73.2148 75.3867 72.5078 75.4492 72.2109 75.5742C72.0781 75.6133 71.9609 75.6836 71.8594 75.7852C71.7656 75.8789 71.6875 76.0156 71.625 76.1953C71.5625 76.375 71.5117 76.543 71.4727 76.6992C71.4414 76.8555 71.4141 77.0742 71.3906 77.3555C71.375 77.6289 71.3633 77.8438 71.3555 78C71.3477 78.1484 71.3398 78.3789 71.332 78.6914C71.332 79.0039 71.332 79.2148 71.332 79.3242ZM88.3242 73.8516L88.2305 75.8086C87.9336 75.7695 87.6523 75.75 87.3867 75.75C86.832 75.75 86.3828 75.8047 86.0391 75.9141C85.6953 76.0234 85.4336 76.2109 85.2539 76.4766C85.082 76.7422 84.9648 77.0469 84.9023 77.3906C84.8477 77.7266 84.8203 78.1797 84.8203 78.75C84.8203 79.0703 84.832 79.5391 84.8555 80.1562C84.8867 80.7734 84.9023 81.2148 84.9023 81.4805V87H82.5938V74.1445H84.6914L84.9258 75.5859C85.168 75.0234 85.5352 74.5898 86.0273 74.2852C86.5195 73.9727 87.1094 73.8164 87.7969 73.8164C87.9688 73.8164 88.1445 73.8281 88.3242 73.8516ZM100.301 83.4375C100.301 84.1875 100.219 84.8047 100.055 85.2891C99.8906 85.7656 99.6172 86.1445 99.2344 86.4258C98.8594 86.707 98.3984 86.9023 97.8516 87.0117C97.3125 87.1211 96.6289 87.1758 95.8008 87.1758C95.3164 87.1758 94.9258 87.1719 94.6289 87.1641C94.3398 87.1562 94.0039 87.1367 93.6211 87.1055C93.2383 87.0742 92.9336 87.0273 92.707 86.9648C92.4805 86.8945 92.2344 86.8047 91.9688 86.6953C91.7109 86.5781 91.5078 86.4336 91.3594 86.2617C91.2109 86.082 91.0703 85.8711 90.9375 85.6289C90.8047 85.3867 90.7109 85.1016 90.6562 84.7734C90.6016 84.4375 90.5742 84.0586 90.5742 83.6367L92.3906 83.168C92.4609 84.0586 92.543 84.6211 92.6367 84.8555C92.7773 85.1758 93.0703 85.3789 93.5156 85.4648C93.8516 85.5352 94.5586 85.5703 95.6367 85.5703C96.2852 85.5703 96.7656 85.543 97.0781 85.4883C97.3984 85.4258 97.6133 85.3125 97.7227 85.1484C98.0352 84.8906 98.1914 84.0117 98.1914 82.5117C98.1914 82.2852 98.1445 82.0938 98.0508 81.9375C97.957 81.7734 97.8438 81.6523 97.7109 81.5742C97.5781 81.4883 97.3906 81.418 97.1484 81.3633C96.9141 81.3008 96.6992 81.2617 96.5039 81.2461C96.3164 81.2227 96.0664 81.1953 95.7539 81.1641C95.4414 81.1328 95.1914 81.1055 95.0039 81.082C94.4336 81.0195 93.9688 80.9609 93.6094 80.9062C93.25 80.8438 92.8867 80.7539 92.5195 80.6367C92.1523 80.5195 91.8633 80.375 91.6523 80.2031C91.4492 80.0312 91.2617 79.8086 91.0898 79.5352C90.918 79.2617 90.7969 78.9336 90.7266 78.5508C90.6562 78.168 90.6211 77.7109 90.6211 77.1797C90.6211 76.6172 90.6797 76.1406 90.7969 75.75C90.9141 75.3594 91.0859 75.0352 91.3125 74.7773C91.5391 74.5195 91.8477 74.3203 92.2383 74.1797C92.6367 74.0312 93.082 73.9297 93.5742 73.875C94.0664 73.8125 94.668 73.7812 95.3789 73.7812C95.8242 73.7812 96.1875 73.7891 96.4688 73.8047C96.7578 73.8125 97.0703 73.8398 97.4062 73.8867C97.75 73.9258 98.0273 73.9844 98.2383 74.0625C98.4492 74.1406 98.6602 74.25 98.8711 74.3906C99.0898 74.5312 99.2578 74.707 99.375 74.918C99.4922 75.1211 99.5859 75.3711 99.6562 75.668C99.7344 75.9648 99.7734 76.3047 99.7734 76.6875L98.2031 77.168C98.1719 76.8633 98.1406 76.625 98.1094 76.4531C98.0859 76.2734 98.0273 76.1094 97.9336 75.9609C97.8398 75.8125 97.7422 75.707 97.6406 75.6445C97.5391 75.582 97.3633 75.5273 97.1133 75.4805C96.8711 75.4336 96.625 75.4062 96.375 75.3984C96.125 75.3906 95.7656 75.3867 95.2969 75.3867C94.2969 75.3867 93.6172 75.4883 93.2578 75.6914C92.9062 75.8867 92.7305 76.2109 92.7305 76.6641V77.8594C92.7305 78.375 92.8828 78.7031 93.1875 78.8438C93.5 78.9766 94.3281 79.1289 95.6719 79.3008C95.8125 79.3242 95.918 79.3398 95.9883 79.3477C96.5273 79.4102 96.9531 79.4688 97.2656 79.5234C97.5859 79.5781 97.9219 79.6523 98.2734 79.7461C98.625 79.832 98.8906 79.9375 99.0703 80.0625C99.2578 80.1797 99.4414 80.332 99.6211 80.5195C99.8086 80.707 99.9414 80.9375 100.02 81.2109C100.105 81.4844 100.172 81.8008 100.219 82.1602C100.273 82.5195 100.301 82.9453 100.301 83.4375Z" fill="#3294F8"/>
<defs>
<clipPath id="clip0_406_119">
<rect width="45" height="40" fill="white" transform="translate(28.5)"/>
</clipPath>
</defs>
</svg>
